<svg xmlns="http://www.w3.org/2000/svg" width="24.807" height="27.346" viewBox="0 0 24.807 27.346">
  <path id="ic_share_24px" d="M22.839,20.622a3.851,3.851,0,0,0-2.592,1.018l-9.43-5.489a4.33,4.33,0,0,0,.119-.926,4.33,4.33,0,0,0-.119-.926l9.324-5.436a3.959,3.959,0,1,0-1.27-2.9,4.33,4.33,0,0,0,.119.926L9.666,12.329a3.968,3.968,0,1,0,0,5.793l9.417,5.5a3.731,3.731,0,0,0-.106.86,3.862,3.862,0,1,0,3.862-3.862Z" transform="translate(-2.5 -1.5)" fill="#fff" stroke="#dcdcdc" stroke-width="1" opacity="0.5"/>
</svg>
