<svg xmlns="http://www.w3.org/2000/svg" xmlns:xlink="http://www.w3.org/1999/xlink" width="500" height="500" viewBox="0 0 500 500">
  <defs>
    <clipPath id="clip-Love_Status_BB0053">
      <rect width="500" height="500"/>
    </clipPath>
  </defs>
  <g id="Love_Status_BB0053" data-name="Love Status  BB0053" clip-path="url(#clip-Love_Status_BB0053)">
    <rect id="Rectangle_7818" data-name="Rectangle 7818" width="500" height="500" fill="none"/>
    <g id="Group_617" data-name="Group 617" transform="translate(-206.684 -1686.684)">
      <path id="Path_270" data-name="Path 270" d="M37.005,0h98.989A37.005,37.005,0,0,1,173,37.005v98.989A37.005,37.005,0,0,1,135.995,173H37.005A37.005,37.005,0,0,1,0,135.995V37.005A37.005,37.005,0,0,1,37.005,0Z" transform="translate(370.684 1850.684)" fill="#bb0053"/>
      <path id="Path_288" data-name="Path 288" d="M-46.23,1.541a59.735,59.735,0,0,1,.569-7.27q.569-4.456,1.474-9.414t2.043-9.983Q-41-30.15-39.832-34.17A66.017,66.017,0,0,1-37.621-40.7q1.038-2.513,1.776-2.513a5.462,5.462,0,0,1,1.44.3q.971.3,1.943.7a11.061,11.061,0,0,1,1.708.871q.737.469.737.871a.455.455,0,0,1-.134.335q-.268.335-.469.569a4.185,4.185,0,0,0-.4.57,33.645,33.645,0,0,0-2.043,5.058q-1.106,3.317-2.211,7.437t-2.11,8.609Q-38.391-13.4-39.2-9.28t-1.273,7.47q-.469,3.35-.536,5.092a65.36,65.36,0,0,1,7.136-1.139q3.785-.4,6.667-.469,2.546,0,2.814.67a5.24,5.24,0,0,1,.368,1.24q.168.837.268,1.708a6.175,6.175,0,0,1,0,1.575q-.1.7-.368.837h-.335a4.063,4.063,0,0,0-1.139-.335,51.128,51.128,0,0,0-5.494-.4,48.035,48.035,0,0,0-5.929.235,54.664,54.664,0,0,0-5.829.9,29.6,29.6,0,0,0-5.259,1.608q-.737.335-1.105-.168a2.216,2.216,0,0,1-.4-1.24A4.009,4.009,0,0,1-49.379,6.8a1.652,1.652,0,0,1,.871-1.039A30.3,30.3,0,0,1-43.684,4.02,6.177,6.177,0,0,1-45.46,2.948,1.89,1.89,0,0,1-46.23,1.541ZM-20.636-4.69a2.2,2.2,0,0,1,.67-.134,15.722,15.722,0,0,0,1.943-.335q.8-.2,1.943-.536a19.505,19.505,0,0,0,1.675-3.082,30.009,30.009,0,0,0,1.373-3.752,34.877,34.877,0,0,0,.9-3.886,21.042,21.042,0,0,0,.335-3.551,6.554,6.554,0,0,0-.4-2.58A1.8,1.8,0,0,0-13.3-23.651a2.244,2.244,0,0,0-1.574.2,5.366,5.366,0,0,0-1.742,1.407A15.983,15.983,0,0,0-19.1-18.057,24.121,24.121,0,0,0-20.7-13.166a23.12,23.12,0,0,0-.536,4.824A9.066,9.066,0,0,0-20.636-4.69Zm2.68-21.909a3.8,3.8,0,0,1,2.446-.268,5.839,5.839,0,0,1,2.312,1,8.7,8.7,0,0,1,2.948.5,8.79,8.79,0,0,1,2.446,1.306,6.223,6.223,0,0,1,1.642,1.876,4.454,4.454,0,0,1,.6,2.211,22.971,22.971,0,0,1-.5,4.69A26.471,26.471,0,0,1-7.5-10.586a26.7,26.7,0,0,0,3.987-4.389A24.677,24.677,0,0,0-.6-20.234a.9.9,0,0,1,.536-.5A.99.99,0,0,1,.6-20.7a.937.937,0,0,1,.5.469.932.932,0,0,1,.034.737A26.009,26.009,0,0,1-9.313-7.035a18.459,18.459,0,0,1-4.422,5.059A8.874,8.874,0,0,1-19.3,0a6.553,6.553,0,0,1-3.25-.8,7.942,7.942,0,0,1-2.412-2.044,9.947,9.947,0,0,1-1.508-2.68A7.957,7.957,0,0,1-27-8.308a23.169,23.169,0,0,1,.636-5.226,28.909,28.909,0,0,1,1.776-5.293,20.224,20.224,0,0,1,2.814-4.59A12.536,12.536,0,0,1-17.956-26.6Zm31.892.268a4.427,4.427,0,0,1,1.776,2.01,2.949,2.949,0,0,1,.1,2.412q-.8,1.876-1.876,4.087t-2.345,4.556A2.943,2.943,0,0,0,13.534-13a6.029,6.029,0,0,0,3.149-2.044A28.686,28.686,0,0,0,20.167-20.3a.789.789,0,0,1,.569-.469.979.979,0,0,1,.67.1.965.965,0,0,1,.436.5.874.874,0,0,1-.067.737,27.679,27.679,0,0,1-4.053,5.93,7.206,7.206,0,0,1-3.853,2.311,4.3,4.3,0,0,1-3.149-.469Q9.179-8.844,7.5-6.231A46.658,46.658,0,0,1,4.221-1.675,6.336,6.336,0,0,1,3.048-.536,2.357,2.357,0,0,1,1.608,0,6.2,6.2,0,0,1-.134-.3a9.6,9.6,0,0,1-1.909-.8A5.436,5.436,0,0,1-3.551-2.312a2.278,2.278,0,0,1-.6-1.508q0-2.613.168-5.46t.5-5.729q.335-2.881.838-5.628T-1.474-25.8q.335-1,1.139-1a7.433,7.433,0,0,1,2.312.435,7.9,7.9,0,0,1,1.977.9.73.73,0,0,1,.3.972q-.235.637-.368,1.105-.536,2.01-1.072,4.59t-1.005,5.26Q1.34-10.854,1-8.375T.6-4.087q-.067.469.1.57t.5-.368q.871-1.206,1.843-2.881t1.943-3.451q.972-1.775,1.809-3.551t1.575-3.183a16.455,16.455,0,0,1,.771-4.12A18.046,18.046,0,0,1,11.658-26a1.221,1.221,0,0,1,1.072-.7A2.79,2.79,0,0,1,13.936-26.331ZM24.857,0a9.293,9.293,0,0,1-4.924-1.173,7.457,7.457,0,0,1-2.848-3.049,10.9,10.9,0,0,1-1.072-4.322,17.907,17.907,0,0,1,.435-4.958,27.441,27.441,0,0,1,1.642-4.958,19.859,19.859,0,0,1,2.546-4.322,14.554,14.554,0,0,1,3.183-3.049A6.143,6.143,0,0,1,27.336-27a5.347,5.347,0,0,1,2.177.569,9.565,9.565,0,0,1,2.311,1.508,9.909,9.909,0,0,1,1.809,2.077,4.075,4.075,0,0,1,.737,2.211,8.314,8.314,0,0,1-1.206,4.355,13.2,13.2,0,0,1-3.082,3.517,15.092,15.092,0,0,1-4.053,2.345,11.493,11.493,0,0,1-4.121.838,9.323,9.323,0,0,0,.771,4.556,3.291,3.291,0,0,0,3.249,1.876,5.711,5.711,0,0,0,3.92-1.809A22.237,22.237,0,0,0,33.4-9.414a45.813,45.813,0,0,0,2.948-5.594q1.306-2.948,2.177-5.226a.713.713,0,0,1,.5-.5.975.975,0,0,1,.67.033,1.121,1.121,0,0,1,.5.469.725.725,0,0,1,0,.737q-.938,2.479-2.379,5.829a44.838,44.838,0,0,1-3.383,6.4,23.754,23.754,0,0,1-4.355,5.159A7.79,7.79,0,0,1,24.857,0ZM27.47-22.981a8.486,8.486,0,0,0-1.91,2.044,19.058,19.058,0,0,0-1.641,2.914,22.89,22.89,0,0,0-1.24,3.417,23.5,23.5,0,0,0-.7,3.484,4.8,4.8,0,0,0,2.714-.938,10.278,10.278,0,0,0,2.479-2.446,12.9,12.9,0,0,0,1.775-3.451,12.048,12.048,0,0,0,.67-3.953,1.327,1.327,0,0,0-.7-1.373A1.337,1.337,0,0,0,27.47-22.981ZM-35.141,40.9a3.831,3.831,0,0,1-1.374-.3,5.513,5.513,0,0,1-1.44-.837,5.454,5.454,0,0,1-1.139-1.24,2.568,2.568,0,0,1-.469-1.44,6.055,6.055,0,0,1,1.072-3.417,34.639,34.639,0,0,1,2.312-3.082q1.239-1.474,2.312-2.914A4.936,4.936,0,0,0-32.8,24.686a4.1,4.1,0,0,0-.569-2.111A2.167,2.167,0,0,0-35.41,21.6a8.263,8.263,0,0,0-4.02,1.206,16.759,16.759,0,0,0-3.953,3.116,17.855,17.855,0,0,0-2.981,4.221,9.956,9.956,0,0,0-1.173,4.523A5.063,5.063,0,0,0-46.4,38.119a9.969,9.969,0,0,0,2.814,2.211,23.03,23.03,0,0,0,3.551,1.541,26.675,26.675,0,0,1,3.35,1.374,10.687,10.687,0,0,1,4.054,3.417,6.419,6.419,0,0,1,.9,5.159,11.591,11.591,0,0,1-2.345,4.958A16.64,16.64,0,0,1-38.157,60.4a17.805,17.805,0,0,1-5.092,2.178,21.813,21.813,0,0,1-5.427.7,12.684,12.684,0,0,1-4.221-.7,9.967,9.967,0,0,1-3.451-2.01,7.683,7.683,0,0,1-2.111-3.25,7.915,7.915,0,0,1-.134-4.355,11.058,11.058,0,0,1,1.943-4.221,7.082,7.082,0,0,1,.7-.871,13.062,13.062,0,0,1,.972-.938,5.385,5.385,0,0,1,1.139-.771,2.556,2.556,0,0,1,1.139-.3,3.357,3.357,0,0,1,1.44.369,6.645,6.645,0,0,1,1.441.938,7.654,7.654,0,0,1,1.173,1.24,4.576,4.576,0,0,1,.7,1.273,3.409,3.409,0,0,1,.067.67q0,.335-.4.335a4.91,4.91,0,0,0-2.077.5,7.619,7.619,0,0,0-1.943,1.3,7.4,7.4,0,0,0-1.441,1.8,4.106,4.106,0,0,0-.569,2.061,2.4,2.4,0,0,0,.469,1.529,3.209,3.209,0,0,0,1.173.931,6.608,6.608,0,0,0,1.541.5,8.1,8.1,0,0,0,1.575.166,14.4,14.4,0,0,0,3.383-.468,14.862,14.862,0,0,0,3.618-1.4,10.185,10.185,0,0,0,2.881-2.307,4.832,4.832,0,0,0,1.173-3.245A4.97,4.97,0,0,0-41.1,47.887a31.756,31.756,0,0,0-4.221-2.241,34,34,0,0,1-4.12-2.141,12.425,12.425,0,0,1-3.283-2.91A9.333,9.333,0,0,1-54.5,36.047a13.016,13.016,0,0,1,.871-6.455,18.627,18.627,0,0,1,3.718-5.887,19.909,19.909,0,0,1,5.695-4.281,14.912,14.912,0,0,1,6.8-1.639,10.265,10.265,0,0,1,4.891,1.105,6.248,6.248,0,0,1,2.948,3.25,4.181,4.181,0,0,1,1.139,1.441,3.654,3.654,0,0,1,.4,1.575,7.762,7.762,0,0,1-1.072,3.752q-1.072,1.943-2.311,3.886t-2.311,3.886a7.762,7.762,0,0,0-1.072,3.752Q-34.807,40.9-35.141,40.9Zm19.162-15.544a4.844,4.844,0,0,0-.536.771,4.094,4.094,0,0,0-.335.838q-.2.536-.368,1t-.3,1.005a24.946,24.946,0,0,1,2.948.167,4.651,4.651,0,0,1,2.077.636.91.91,0,0,1,.3.4,3.461,3.461,0,0,1,.268.77q.1.435.168.837a4.212,4.212,0,0,1,.067.67.87.87,0,0,1-.268.737h-.2a11.188,11.188,0,0,0-3.182-.637q-1.709-.1-3.249-.1-.871,2.948-1.708,6.2t-1.541,6.4q-.7,3.149-1.273,6.03t-.837,5.159q-.134,1.139.1,1.306t.972-.569a28.6,28.6,0,0,0,2.915-3.652q1.44-2.111,2.747-4.321t2.345-4.355a40.019,40.019,0,0,0,1.641-3.819A1.043,1.043,0,0,1-12.7,40.3a.871.871,0,0,1,.67,0,.937.937,0,0,1,.5.469.931.931,0,0,1,.034.737q-.469,1.139-1.306,3.015t-1.977,4.054q-1.139,2.178-2.512,4.389a35.841,35.841,0,0,1-2.847,3.986,18.985,18.985,0,0,1-2.948,2.915A4.673,4.673,0,0,1-25.9,61a3.084,3.084,0,0,1-2.144-.67,3.631,3.631,0,0,1-1.038-1.642,7.089,7.089,0,0,1-.3-2.111q0-1.139.067-2.144.2-2.278.6-4.958t.972-5.494q.57-2.814,1.206-5.7t1.307-5.628H-26.7q-.469,0-1.206-.034a11.03,11.03,0,0,1-1.474-.167,3.873,3.873,0,0,1-1.34-.5,2.1,2.1,0,0,1-.871-1.038q-.335-.8.6-.8a31.671,31.671,0,0,0,3.283-.167q1.608-.167,3.216-.368.335-1.34.67-2.613a16.322,16.322,0,0,1,.871-2.479q1.005-2.479,1.943-2.479a5.682,5.682,0,0,1,1.407.268,10.465,10.465,0,0,1,1.809.7,12.213,12.213,0,0,1,1.541.9q.67.469.67.871a.549.549,0,0,1-.2.335.525.525,0,0,0-.1.134A.525.525,0,0,1-15.979,25.356ZM-5.8,56.444a9.07,9.07,0,0,0,.167-1.273A9.071,9.071,0,0,1-5.46,53.9a1.15,1.15,0,0,0,.067-.469,25.241,25.241,0,0,1-3.35,5.326A5.391,5.391,0,0,1-12.9,61a4.075,4.075,0,0,1-3.115-1.173,5.018,5.018,0,0,1-1.306-2.981,22.71,22.71,0,0,1,.167-6.1,29.2,29.2,0,0,1,1.775-6.533,27.14,27.14,0,0,1,3.183-5.829A13.169,13.169,0,0,1-7.805,34.4a2.977,2.977,0,0,1,1.641-.436,5.936,5.936,0,0,1,1.708.335,11.858,11.858,0,0,1,1.742.771q.871.469,1.809.938a.85.85,0,0,0,.2-.4q.067-.268.134-.469.4-.871,1.005-.871a3.753,3.753,0,0,1,1.105.2,8.473,8.473,0,0,1,1.24.5,10.279,10.279,0,0,1,1.105.637q.5.335.838.6a.666.666,0,0,1,.2.972,7.127,7.127,0,0,0-.536,1.105q-.8,2.211-1.541,4.69t-1.34,4.958Q.9,50.414.436,52.726t-.8,4.12q-.134.737.2.8a.853.853,0,0,0,.737-.335,20.079,20.079,0,0,0,2.847-3.652A43.6,43.6,0,0,0,5.8,49.275Q6.868,47,7.705,44.786t1.508-3.953a1.043,1.043,0,0,1,.536-.536.871.871,0,0,1,.67,0,.944.944,0,0,1,.536,1.206q-.469,1.139-1.173,3.015T8.074,48.571Q7.069,50.749,5.9,52.96a32.063,32.063,0,0,1-2.479,3.986A15.655,15.655,0,0,1,.7,59.861,4.476,4.476,0,0,1-2.11,61a3.117,3.117,0,0,1-1.575-.4,3.941,3.941,0,0,1-1.206-1.072,4.569,4.569,0,0,1-.737-1.474A4.4,4.4,0,0,1-5.8,56.444Zm-5.159,1.072A2.328,2.328,0,0,0-9.279,56.41,18.783,18.783,0,0,0-7.5,53.6,34.181,34.181,0,0,0-5.8,49.778q.8-2.111,1.507-4.087t1.206-3.584q.5-1.608.771-2.412.134-.469.3-.9t.369-.837a1.765,1.765,0,0,0-1.608-.871A4.224,4.224,0,0,0-6.5,38.957a19.069,19.069,0,0,0-2.647,4.59,36.113,36.113,0,0,0-1.843,5.695,31.391,31.391,0,0,0-.837,5.125q0,.268-.033.8a5.328,5.328,0,0,0,.033,1.039,2.851,2.851,0,0,0,.268.9A.644.644,0,0,0-10.954,57.516ZM19.4,25.356a4.844,4.844,0,0,0-.536.771,4.094,4.094,0,0,0-.335.838q-.2.536-.368,1t-.3,1.005a24.946,24.946,0,0,1,2.948.167,4.651,4.651,0,0,1,2.077.636.91.91,0,0,1,.3.4,3.461,3.461,0,0,1,.268.77q.1.435.168.837a4.212,4.212,0,0,1,.067.67.87.87,0,0,1-.268.737h-.2a11.188,11.188,0,0,0-3.183-.637q-1.708-.1-3.25-.1-.871,2.948-1.708,6.2t-1.541,6.4q-.7,3.149-1.273,6.03t-.838,5.159q-.134,1.139.1,1.306t.971-.569a28.6,28.6,0,0,0,2.915-3.652q1.44-2.111,2.747-4.321T20.5,44.652a40.019,40.019,0,0,0,1.641-3.819,1.043,1.043,0,0,1,.536-.536.871.871,0,0,1,.67,0,.944.944,0,0,1,.536,1.206q-.469,1.139-1.306,3.015T20.6,48.571q-1.139,2.178-2.512,4.389a35.84,35.84,0,0,1-2.848,3.986,18.985,18.985,0,0,1-2.948,2.915A4.673,4.673,0,0,1,9.481,61a3.084,3.084,0,0,1-2.144-.67A3.631,3.631,0,0,1,6.3,58.688,7.089,7.089,0,0,1,6,56.578q0-1.139.067-2.144.2-2.278.6-4.958t.971-5.494q.57-2.814,1.206-5.7t1.307-5.628H8.677q-.469,0-1.206-.034A11.03,11.03,0,0,1,6,32.458a3.873,3.873,0,0,1-1.34-.5,2.1,2.1,0,0,1-.871-1.038q-.335-.8.6-.8a31.671,31.671,0,0,0,3.283-.167q1.608-.167,3.216-.368.335-1.34.67-2.613a16.322,16.322,0,0,1,.871-2.479q1.005-2.479,1.943-2.479a5.682,5.682,0,0,1,1.407.268,10.465,10.465,0,0,1,1.809.7,12.213,12.213,0,0,1,1.541.9q.67.469.67.871a.549.549,0,0,1-.2.335.525.525,0,0,0-.1.134A.525.525,0,0,1,19.4,25.356ZM29.782,56.444q.134-.67.2-1.273t.134-1.273a.54.54,0,0,0,.067-.235.54.54,0,0,1,.067-.234,28.335,28.335,0,0,1-3.384,5.326A5.3,5.3,0,0,1,22.747,61a4.206,4.206,0,0,1-1.843-.436,5.7,5.7,0,0,1-1.575-1.105,5.062,5.062,0,0,1-1.038-1.474,3.019,3.019,0,0,1-.3-1.541,9.071,9.071,0,0,0,.168-1.273,9.071,9.071,0,0,1,.167-1.273A91.874,91.874,0,0,1,20.4,44.149a65.255,65.255,0,0,1,3.082-9.011q.4-.871,1-.871a3.753,3.753,0,0,1,1.106.2,8.473,8.473,0,0,1,1.239.5,10.279,10.279,0,0,1,1.106.637q.5.335.837.6a.666.666,0,0,1,.2.972,7.127,7.127,0,0,0-.536,1.105Q27.7,40.23,27,42.408T25.694,46.8q-.6,2.211-1.105,4.355T23.752,55.1a2.747,2.747,0,0,0,.033,1.776.928.928,0,0,0,.838.636,2.418,2.418,0,0,0,1.708-1.105A17.1,17.1,0,0,0,28.14,53.6q.9-1.708,1.775-3.819t1.608-4.087q.737-1.977,1.273-3.584l.8-2.412q.4-1.206.8-2.345t.871-2.211q.4-.871,1.005-.871a3.753,3.753,0,0,1,1.105.2,8.473,8.473,0,0,1,1.24.5,10.28,10.28,0,0,1,1.105.637q.5.335.838.6a.666.666,0,0,1,.2.972,4.206,4.206,0,0,0-.469,1.105q-.871,2.211-1.642,4.69t-1.44,4.958q-.67,2.479-1.173,4.791t-.837,4.12q-.134.737.2.8a1.015,1.015,0,0,0,.8-.335,23.437,23.437,0,0,0,2.814-3.652,44.1,44.1,0,0,0,2.445-4.388q1.106-2.278,2.01-4.489t1.575-3.953a1.043,1.043,0,0,1,.536-.536.871.871,0,0,1,.67,0A.944.944,0,0,1,46.8,41.5q-.469,1.139-1.206,3.015t-1.742,4.054q-1.005,2.178-2.211,4.389a32.22,32.22,0,0,1-2.546,3.986,15.87,15.87,0,0,1-2.78,2.915A4.607,4.607,0,0,1,33.466,61a3.238,3.238,0,0,1-2.78-1.474A4.578,4.578,0,0,1,29.782,56.444ZM44.455,61.4a5.615,5.615,0,0,1-2.714-.6,4.418,4.418,0,0,1-1.675-1.5,3.475,3.475,0,0,1-.536-2.005,3.956,3.956,0,0,1,.7-2.106,4.169,4.169,0,0,1,1.977-1.8,8.731,8.731,0,0,1,2.646-.668q1.139-.134,2.244-.2a13.692,13.692,0,0,0,2.043-.267,6.537,6.537,0,0,0-1.072-2.773q-.871-1.3-1.776-2.607a21.539,21.539,0,0,1-1.641-2.807,7.725,7.725,0,0,1-.737-3.443,6.325,6.325,0,0,1,.637-2.874A6.615,6.615,0,0,1,46.23,35.6a7.633,7.633,0,0,1,2.345-1.337,7.987,7.987,0,0,1,2.714-.468,3.663,3.663,0,0,1,1.843.57,7.736,7.736,0,0,1,1.775,1.44,8.661,8.661,0,0,1,1.34,1.91,4.212,4.212,0,0,1,.536,1.91,3.7,3.7,0,0,1-.234,1.206,6.642,6.642,0,0,1-.6,1.273,4.669,4.669,0,0,1-.8,1.005,1.229,1.229,0,0,1-.771.4,5.43,5.43,0,0,1-2.345-.575q-1.206-.575-1.206-1.116a.391.391,0,0,1,.134-.271,1.732,1.732,0,0,0,1.474-1.083,4.205,4.205,0,0,0,.6-2.03,1.98,1.98,0,0,0-.268-1.049.88.88,0,0,0-.8-.44,1.476,1.476,0,0,0-1.072.469,3.79,3.79,0,0,0-.771,1.139,6.249,6.249,0,0,0-.435,1.34,5.961,5.961,0,0,0-.134,1.139,5.415,5.415,0,0,0,.6,2.513,15.714,15.714,0,0,0,1.407,2.244q.8,1.072,1.641,2.144a11.655,11.655,0,0,1,1.374,2.211,13.031,13.031,0,0,0,4.489-3.919,20.634,20.634,0,0,0,2.68-5.394.813.813,0,0,1,.469-.536.99.99,0,0,1,.67-.033.927.927,0,0,1,.536.435.848.848,0,0,1,.067.737A20.8,20.8,0,0,1,60.2,47.8a15.757,15.757,0,0,1-5.025,4.154,6.652,6.652,0,0,1-.637,3.953,8.927,8.927,0,0,1-2.512,2.981,11.617,11.617,0,0,1-3.618,1.876A13.047,13.047,0,0,1,44.455,61.4Zm4.623-7.236a9.857,9.857,0,0,1-2.58.235,8.717,8.717,0,0,0-2.646.3,2.172,2.172,0,0,0-1.541,1.039,2.093,2.093,0,0,0-.2,1.541,1.934,1.934,0,0,0,.938,1.206,2.311,2.311,0,0,0,1.943.034,7.269,7.269,0,0,0,4.087-4.355Z" transform="translate(458.684 1922.684)" fill="#fff"/>
    </g>
  </g>
</svg>
