<svg xmlns="http://www.w3.org/2000/svg" xmlns:xlink="http://www.w3.org/1999/xlink" width="500" height="500" viewBox="0 0 500 500">
  <defs>
    <clipPath id="clip-Love_Status_BB0053_bg">
      <rect width="500" height="500"/>
    </clipPath>
  </defs>
  <g id="Love_Status_BB0053_bg" data-name="Love Status  BB0053 bg" clip-path="url(#clip-Love_Status_BB0053_bg)">
    <rect id="Rectangle_7829" data-name="Rectangle 7829" width="500" height="500" fill="#bb0053"/>
    <rect id="Rectangle_7818" data-name="Rectangle 7818" width="500" height="500" fill="none"/>
    <path id="Path_289" data-name="Path 289" d="M-84.18,2.806a108.769,108.769,0,0,1,1.037-13.237q1.037-8.113,2.684-17.141t3.721-18.178q2.074-9.15,4.209-16.47a120.209,120.209,0,0,1,4.026-11.9q1.891-4.575,3.233-4.575a9.946,9.946,0,0,1,2.623.549q1.769.549,3.538,1.281A20.142,20.142,0,0,1-56-75.274q1.342.854,1.342,1.586a.828.828,0,0,1-.244.61q-.488.61-.854,1.037A7.622,7.622,0,0,0-56.486-71a61.264,61.264,0,0,0-3.721,9.211q-2.013,6.039-4.026,13.542t-3.843,15.677Q-69.906-24.4-71.37-16.9t-2.318,13.6q-.854,6.1-.976,9.272A119.013,119.013,0,0,1-61.671,3.9q6.893-.732,12.139-.854,4.636,0,5.124,1.22a9.541,9.541,0,0,1,.671,2.257q.3,1.525.488,3.111a11.244,11.244,0,0,1,0,2.867q-.183,1.281-.671,1.525h-.61a7.4,7.4,0,0,0-2.074-.61,93.1,93.1,0,0,0-10-.732,87.467,87.467,0,0,0-10.8.427,99.537,99.537,0,0,0-10.614,1.647A53.889,53.889,0,0,0-87.6,17.69q-1.342.61-2.013-.3a4.035,4.035,0,0,1-.732-2.257,7.3,7.3,0,0,1,.427-2.745,3.007,3.007,0,0,1,1.586-1.891A55.179,55.179,0,0,1-79.544,7.32a11.247,11.247,0,0,1-3.233-1.952A3.442,3.442,0,0,1-84.18,2.806Zm46.6-11.346a4.014,4.014,0,0,1,1.22-.244,28.628,28.628,0,0,0,3.538-.61q1.464-.366,3.538-.976a35.517,35.517,0,0,0,3.05-5.612,54.644,54.644,0,0,0,2.5-6.832,63.508,63.508,0,0,0,1.647-7.076,38.315,38.315,0,0,0,.61-6.466,11.935,11.935,0,0,0-.732-4.7,3.27,3.27,0,0,0-2.013-2.013,4.086,4.086,0,0,0-2.867.366,9.771,9.771,0,0,0-3.172,2.562,29.1,29.1,0,0,0-4.514,7.259A43.921,43.921,0,0,0-37.7-23.973a42.1,42.1,0,0,0-.976,8.784A16.508,16.508,0,0,0-37.576-8.54Zm4.88-39.894a6.925,6.925,0,0,1,4.453-.488,10.633,10.633,0,0,1,4.209,1.83,15.84,15.84,0,0,1,5.368.915A16.005,16.005,0,0,1-14.213-43.8a11.332,11.332,0,0,1,2.989,3.416,8.111,8.111,0,0,1,1.1,4.026,41.828,41.828,0,0,1-.915,8.54,48.2,48.2,0,0,1-2.623,8.54,48.621,48.621,0,0,0,7.259-7.991A44.934,44.934,0,0,0-1.1-36.844a1.64,1.64,0,0,1,.976-.915A1.8,1.8,0,0,1,1.1-37.7a1.706,1.706,0,0,1,.915.854A1.7,1.7,0,0,1,2.074-35.5,47.36,47.36,0,0,1-16.958-12.81,33.612,33.612,0,0,1-25.01-3.6,16.158,16.158,0,0,1-35.136,0a11.931,11.931,0,0,1-5.917-1.464,14.461,14.461,0,0,1-4.392-3.721,18.113,18.113,0,0,1-2.745-4.88,14.489,14.489,0,0,1-.976-5.063,42.189,42.189,0,0,1,1.159-9.516,52.64,52.64,0,0,1,3.233-9.638,36.825,36.825,0,0,1,5.124-8.357A22.827,22.827,0,0,1-32.7-48.434Zm58.072.488a8.061,8.061,0,0,1,3.233,3.66,5.37,5.37,0,0,1,.183,4.392q-1.464,3.416-3.416,7.442t-4.27,8.3a5.358,5.358,0,0,0,3.538.488,10.977,10.977,0,0,0,5.734-3.721,52.234,52.234,0,0,0,6.344-9.577,1.437,1.437,0,0,1,1.037-.854,1.782,1.782,0,0,1,1.22.183,1.757,1.757,0,0,1,.793.915,1.591,1.591,0,0,1-.122,1.342,50.4,50.4,0,0,1-7.381,10.8,13.121,13.121,0,0,1-7.015,4.209,7.838,7.838,0,0,1-5.734-.854q-2.806,5.124-5.856,9.882a84.96,84.96,0,0,1-5.978,8.3A11.538,11.538,0,0,1,5.551-.976,4.291,4.291,0,0,1,2.928,0,11.288,11.288,0,0,1-.244-.549,17.479,17.479,0,0,1-3.721-2.013a9.9,9.9,0,0,1-2.745-2.2,4.149,4.149,0,0,1-1.1-2.745q0-4.758.3-9.943t.915-10.431q.61-5.246,1.525-10.248t2.135-9.394q.61-1.83,2.074-1.83a13.535,13.535,0,0,1,4.209.793A14.39,14.39,0,0,1,7.2-46.36a1.329,1.329,0,0,1,.549,1.769q-.427,1.159-.671,2.013-.976,3.66-1.952,8.357t-1.83,9.577Q2.44-19.764,1.83-15.25T1.1-7.442q-.122.854.183,1.037T2.2-7.076q1.586-2.2,3.355-5.246T9.089-18.6q1.769-3.233,3.294-6.466t2.867-5.8a29.963,29.963,0,0,1,1.4-7.5,32.86,32.86,0,0,1,4.575-8.967,2.223,2.223,0,0,1,1.952-1.281A5.081,5.081,0,0,1,25.376-47.946ZM45.262,0a16.921,16.921,0,0,1-8.967-2.135A13.579,13.579,0,0,1,31.11-7.686a19.85,19.85,0,0,1-1.952-7.869,32.606,32.606,0,0,1,.793-9.028,49.967,49.967,0,0,1,2.989-9.028,36.161,36.161,0,0,1,4.636-7.869,26.5,26.5,0,0,1,5.795-5.551,11.186,11.186,0,0,1,6.4-2.135,9.735,9.735,0,0,1,3.965,1.037,17.416,17.416,0,0,1,4.209,2.745A18.043,18.043,0,0,1,61.244-41.6a7.42,7.42,0,0,1,1.342,4.026,15.139,15.139,0,0,1-2.2,7.93,24.034,24.034,0,0,1-5.612,6.405,27.481,27.481,0,0,1-7.381,4.27,20.927,20.927,0,0,1-7.5,1.525,16.977,16.977,0,0,0,1.4,8.3q1.647,3.416,5.917,3.416,3.66,0,7.137-3.294a40.492,40.492,0,0,0,6.466-8.113,83.421,83.421,0,0,0,5.368-10.187q2.379-5.368,3.965-9.516a1.3,1.3,0,0,1,.915-.915,1.776,1.776,0,0,1,1.22.061,2.041,2.041,0,0,1,.915.854,1.319,1.319,0,0,1,0,1.342q-1.708,4.514-4.331,10.614a81.644,81.644,0,0,1-6.161,11.651,43.253,43.253,0,0,1-7.93,9.394A14.185,14.185,0,0,1,45.262,0ZM50.02-41.846a15.453,15.453,0,0,0-3.477,3.721,34.7,34.7,0,0,0-2.989,5.307A41.682,41.682,0,0,0,41.3-26.6a42.786,42.786,0,0,0-1.281,6.344,8.742,8.742,0,0,0,4.941-1.708,18.716,18.716,0,0,0,4.514-4.453A23.5,23.5,0,0,0,52.7-32.7a21.939,21.939,0,0,0,1.22-7.2,2.415,2.415,0,0,0-1.281-2.5A2.434,2.434,0,0,0,50.02-41.846ZM-63.989,74.4a6.976,6.976,0,0,1-2.5-.549,10.039,10.039,0,0,1-2.623-1.525,9.931,9.931,0,0,1-2.074-2.257,4.677,4.677,0,0,1-.854-2.623,11.025,11.025,0,0,1,1.952-6.222,63.074,63.074,0,0,1,4.209-5.612q2.257-2.684,4.209-5.307a8.987,8.987,0,0,0,1.952-5.429,7.466,7.466,0,0,0-1.037-3.843,3.946,3.946,0,0,0-3.721-1.769,15.046,15.046,0,0,0-7.32,2.2A30.516,30.516,0,0,0-79,47.133a32.512,32.512,0,0,0-5.429,7.686,18.13,18.13,0,0,0-2.135,8.235,9.219,9.219,0,0,0,2.074,6.283,18.152,18.152,0,0,0,5.124,4.026A41.935,41.935,0,0,0-72.9,76.169a48.572,48.572,0,0,1,6.1,2.5,19.459,19.459,0,0,1,7.381,6.222,11.689,11.689,0,0,1,1.647,9.394,21.106,21.106,0,0,1-4.27,9.028,30.3,30.3,0,0,1-7.442,6.588,32.422,32.422,0,0,1-9.272,3.965,39.718,39.718,0,0,1-9.882,1.281,23.1,23.1,0,0,1-7.686-1.281,18.149,18.149,0,0,1-6.283-3.66,13.99,13.99,0,0,1-3.843-5.917,14.413,14.413,0,0,1-.244-7.93,20.135,20.135,0,0,1,3.538-7.686,12.9,12.9,0,0,1,1.281-1.586A23.784,23.784,0,0,1-100.1,85.38a9.805,9.805,0,0,1,2.074-1.4,4.654,4.654,0,0,1,2.074-.549,6.113,6.113,0,0,1,2.623.671,12.1,12.1,0,0,1,2.623,1.708,13.937,13.937,0,0,1,2.135,2.257,8.333,8.333,0,0,1,1.281,2.318,6.206,6.206,0,0,1,.122,1.22q0,.61-.732.61a8.941,8.941,0,0,0-3.782.908,13.874,13.874,0,0,0-3.538,2.361,13.47,13.47,0,0,0-2.623,3.269,7.476,7.476,0,0,0-1.037,3.753,4.378,4.378,0,0,0,.854,2.784,5.843,5.843,0,0,0,2.135,1.695,12.033,12.033,0,0,0,2.806.908,14.743,14.743,0,0,0,2.867.3,26.227,26.227,0,0,0,6.161-.853,27.061,27.061,0,0,0,6.588-2.558,18.545,18.545,0,0,0,5.246-4.2,8.8,8.8,0,0,0,2.135-5.908q0-4.384-4.758-7.551a57.824,57.824,0,0,0-7.686-4.08,61.906,61.906,0,0,1-7.5-3.9,22.625,22.625,0,0,1-5.978-5.3,16.994,16.994,0,0,1-3.233-8.283,23.7,23.7,0,0,1,1.586-11.754A33.918,33.918,0,0,1-90.89,43.09a36.253,36.253,0,0,1,10.37-7.8A27.152,27.152,0,0,1-68.137,32.31a18.692,18.692,0,0,1,8.906,2.013,11.378,11.378,0,0,1,5.368,5.917,7.614,7.614,0,0,1,2.074,2.623,6.653,6.653,0,0,1,.732,2.867,14.134,14.134,0,0,1-1.952,6.832q-1.952,3.538-4.209,7.076t-4.209,7.076a14.134,14.134,0,0,0-1.952,6.832Q-63.379,74.4-63.989,74.4ZM-29.1,46.1a8.82,8.82,0,0,0-.976,1.4,7.454,7.454,0,0,0-.61,1.525q-.366.976-.671,1.83t-.549,1.83a45.423,45.423,0,0,1,5.368.305,8.469,8.469,0,0,1,3.782,1.159,1.656,1.656,0,0,1,.549.732,6.3,6.3,0,0,1,.488,1.4q.183.793.305,1.525a7.669,7.669,0,0,1,.122,1.22,1.584,1.584,0,0,1-.488,1.342h-.366a20.372,20.372,0,0,0-5.8-1.159q-3.111-.183-5.917-.183-1.586,5.368-3.111,11.285t-2.806,11.651q-1.281,5.734-2.318,10.98t-1.525,9.394q-.244,2.074.183,2.379t1.769-1.037a52.079,52.079,0,0,0,5.307-6.649q2.623-3.843,5-7.869t4.27-7.93A72.87,72.87,0,0,0-24.1,74.278a1.9,1.9,0,0,1,.976-.976,1.586,1.586,0,0,1,1.22,0,1.706,1.706,0,0,1,.915.854,1.7,1.7,0,0,1,.061,1.342q-.854,2.074-2.379,5.49t-3.6,7.381q-2.074,3.965-4.575,7.991a65.262,65.262,0,0,1-5.185,7.259,34.57,34.57,0,0,1-5.368,5.307A8.508,8.508,0,0,1-47.153,111a5.615,5.615,0,0,1-3.9-1.22,6.611,6.611,0,0,1-1.891-2.989,12.907,12.907,0,0,1-.549-3.843q0-2.074.122-3.9.366-4.148,1.1-9.028t1.769-10q1.037-5.124,2.2-10.37t2.379-10.248h-2.684q-.854,0-2.2-.061a20.087,20.087,0,0,1-2.684-.305,7.053,7.053,0,0,1-2.44-.915,3.816,3.816,0,0,1-1.586-1.891q-.61-1.464,1.1-1.464a57.669,57.669,0,0,0,5.978-.305q2.928-.3,5.856-.671.61-2.44,1.22-4.758a29.72,29.72,0,0,1,1.586-4.514Q-39.955,40-38.247,40a10.346,10.346,0,0,1,2.562.488,19.055,19.055,0,0,1,3.294,1.281,22.237,22.237,0,0,1,2.806,1.647q1.22.854,1.22,1.586a1,1,0,0,1-.366.61.956.956,0,0,0-.183.244A.956.956,0,0,1-29.1,46.1ZM-10.553,102.7a16.516,16.516,0,0,0,.305-2.318,16.516,16.516,0,0,1,.305-2.318,2.094,2.094,0,0,0,.122-.854,45.962,45.962,0,0,1-6.1,9.7Q-19.337,111-23.485,111a7.42,7.42,0,0,1-5.673-2.135,9.138,9.138,0,0,1-2.379-5.429,41.353,41.353,0,0,1,.305-11.1A53.162,53.162,0,0,1-28,80.439a49.418,49.418,0,0,1,5.8-10.614,23.979,23.979,0,0,1,7.991-7.259,5.421,5.421,0,0,1,2.989-.793,10.81,10.81,0,0,1,3.111.61,21.593,21.593,0,0,1,3.172,1.4q1.586.854,3.294,1.708a1.547,1.547,0,0,0,.366-.732q.122-.488.244-.854.732-1.586,1.83-1.586a6.835,6.835,0,0,1,2.013.366,15.43,15.43,0,0,1,2.257.915,18.718,18.718,0,0,1,2.013,1.159q.915.61,1.525,1.1a1.212,1.212,0,0,1,.366,1.769,12.978,12.978,0,0,0-.976,2.013q-1.464,4.026-2.806,8.54T2.745,87.21q-1.1,4.514-1.952,8.723t-1.464,7.5q-.244,1.342.366,1.464a1.553,1.553,0,0,0,1.342-.61,36.563,36.563,0,0,0,5.185-6.649,79.385,79.385,0,0,0,4.331-7.991Q12.5,85.5,14.03,81.476t2.745-7.2a1.9,1.9,0,0,1,.976-.976,1.586,1.586,0,0,1,1.22,0,1.718,1.718,0,0,1,.976,2.2q-.854,2.074-2.135,5.49T14.7,88.369q-1.83,3.965-3.965,7.991a58.384,58.384,0,0,1-4.514,7.259,28.506,28.506,0,0,1-4.941,5.307A8.15,8.15,0,0,1-3.843,111a5.675,5.675,0,0,1-2.867-.732,7.176,7.176,0,0,1-2.2-1.952,8.32,8.32,0,0,1-1.342-2.684A8,8,0,0,1-10.553,102.7Zm-9.394,1.952q1.464,0,3.05-2.013a34.2,34.2,0,0,0,3.233-5.124,62.238,62.238,0,0,0,3.111-6.954q1.464-3.843,2.745-7.442t2.2-6.527q.915-2.928,1.4-4.392.244-.854.549-1.647t.671-1.525a3.214,3.214,0,0,0-2.928-1.586q-3.172,0-5.917,3.416a34.723,34.723,0,0,0-4.819,8.357,65.759,65.759,0,0,0-3.355,10.37,57.16,57.16,0,0,0-1.525,9.333q0,.488-.061,1.464a9.7,9.7,0,0,0,.061,1.891,5.191,5.191,0,0,0,.488,1.647A1.172,1.172,0,0,0-19.947,104.656ZM35.319,46.1a8.82,8.82,0,0,0-.976,1.4,7.455,7.455,0,0,0-.61,1.525q-.366.976-.671,1.83t-.549,1.83a45.423,45.423,0,0,1,5.368.305,8.469,8.469,0,0,1,3.782,1.159,1.656,1.656,0,0,1,.549.732,6.3,6.3,0,0,1,.488,1.4q.183.793.305,1.525a7.669,7.669,0,0,1,.122,1.22,1.584,1.584,0,0,1-.488,1.342h-.366a20.372,20.372,0,0,0-5.8-1.159q-3.111-.183-5.917-.183Q28.975,64.4,27.45,70.313T24.644,81.964q-1.281,5.734-2.318,10.98T20.8,102.338q-.244,2.074.183,2.379t1.769-1.037a52.079,52.079,0,0,0,5.307-6.649q2.623-3.843,5-7.869t4.27-7.93a72.87,72.87,0,0,0,2.989-6.954A1.9,1.9,0,0,1,41.3,73.3a1.586,1.586,0,0,1,1.22,0,1.718,1.718,0,0,1,.976,2.2q-.854,2.074-2.379,5.49t-3.6,7.381q-2.074,3.965-4.575,7.991a65.262,65.262,0,0,1-5.185,7.259,34.57,34.57,0,0,1-5.368,5.307A8.508,8.508,0,0,1,17.263,111a5.615,5.615,0,0,1-3.9-1.22,6.611,6.611,0,0,1-1.891-2.989,12.908,12.908,0,0,1-.549-3.843q0-2.074.122-3.9.366-4.148,1.1-9.028t1.769-10q1.037-5.124,2.2-10.37t2.379-10.248H15.8q-.854,0-2.2-.061a20.087,20.087,0,0,1-2.684-.305,7.053,7.053,0,0,1-2.44-.915,3.816,3.816,0,0,1-1.586-1.891q-.61-1.464,1.1-1.464a57.669,57.669,0,0,0,5.978-.305q2.928-.3,5.856-.671.61-2.44,1.22-4.758a29.72,29.72,0,0,1,1.586-4.514Q24.461,40,26.169,40a10.346,10.346,0,0,1,2.562.488,19.055,19.055,0,0,1,3.294,1.281,22.237,22.237,0,0,1,2.806,1.647q1.22.854,1.22,1.586a1,1,0,0,1-.366.61.956.956,0,0,0-.183.244A.956.956,0,0,1,35.319,46.1ZM54.229,102.7q.244-1.22.366-2.318t.244-2.318a.983.983,0,0,0,.122-.427.983.983,0,0,1,.122-.427,51.594,51.594,0,0,1-6.161,9.7Q45.567,111,41.419,111a7.659,7.659,0,0,1-3.355-.793,10.388,10.388,0,0,1-2.867-2.013,9.216,9.216,0,0,1-1.891-2.684,5.5,5.5,0,0,1-.549-2.806,16.517,16.517,0,0,0,.3-2.318,16.517,16.517,0,0,1,.305-2.318,167.294,167.294,0,0,1,3.782-17.751,118.822,118.822,0,0,1,5.612-16.409q.732-1.586,1.83-1.586a6.835,6.835,0,0,1,2.013.366,15.43,15.43,0,0,1,2.257.915,18.719,18.719,0,0,1,2.013,1.159q.915.61,1.525,1.1a1.212,1.212,0,0,1,.366,1.769,12.978,12.978,0,0,0-.976,2.013q-1.342,3.538-2.623,7.5t-2.379,7.991q-1.1,4.026-2.013,7.93t-1.525,7.2a5,5,0,0,0,.061,3.233,1.689,1.689,0,0,0,1.525,1.159q1.464,0,3.111-2.013a31.143,31.143,0,0,0,3.294-5.124q1.647-3.111,3.233-6.954T57.4,83.123q1.342-3.6,2.318-6.527L61.183,72.2q.732-2.2,1.464-4.27t1.586-4.026q.732-1.586,1.83-1.586a6.835,6.835,0,0,1,2.013.366,15.43,15.43,0,0,1,2.257.915,18.72,18.72,0,0,1,2.013,1.159q.915.61,1.525,1.1a1.212,1.212,0,0,1,.366,1.769,7.659,7.659,0,0,0-.854,2.013q-1.586,4.026-2.989,8.54T67.771,87.21q-1.22,4.514-2.135,8.723t-1.525,7.5q-.244,1.342.366,1.464a1.848,1.848,0,0,0,1.464-.61,42.676,42.676,0,0,0,5.124-6.649,80.3,80.3,0,0,0,4.453-7.991q2.013-4.148,3.66-8.174t2.867-7.2a1.9,1.9,0,0,1,.976-.976,1.586,1.586,0,0,1,1.22,0,1.718,1.718,0,0,1,.976,2.2q-.854,2.074-2.2,5.49t-3.172,7.381q-1.83,3.965-4.026,7.991a58.669,58.669,0,0,1-4.636,7.259,28.9,28.9,0,0,1-5.063,5.307A8.389,8.389,0,0,1,60.939,111a5.9,5.9,0,0,1-5.063-2.684A8.335,8.335,0,0,1,54.229,102.7Zm26.718,9.028a10.223,10.223,0,0,1-4.941-1.1,8.044,8.044,0,0,1-3.05-2.738,6.328,6.328,0,0,1-.976-3.651,7.2,7.2,0,0,1,1.281-3.834,7.59,7.59,0,0,1,3.6-3.285,15.9,15.9,0,0,1,4.819-1.217q2.074-.244,4.087-.365a24.932,24.932,0,0,0,3.721-.487,11.9,11.9,0,0,0-1.952-5.05q-1.586-2.373-3.233-4.747a39.219,39.219,0,0,1-2.989-5.112,14.067,14.067,0,0,1-1.342-6.269,11.517,11.517,0,0,1,1.159-5.233,12.046,12.046,0,0,1,3.05-3.894,13.9,13.9,0,0,1,4.27-2.434,14.544,14.544,0,0,1,4.941-.852A6.67,6.67,0,0,1,96.746,62.5a14.087,14.087,0,0,1,3.233,2.623,15.771,15.771,0,0,1,2.44,3.477,7.67,7.67,0,0,1,.976,3.477,6.729,6.729,0,0,1-.427,2.2,12.1,12.1,0,0,1-1.1,2.318,8.5,8.5,0,0,1-1.464,1.83,2.237,2.237,0,0,1-1.4.732,9.887,9.887,0,0,1-4.27-1.047q-2.2-1.047-2.2-2.033a.712.712,0,0,1,.244-.494,3.154,3.154,0,0,0,2.684-1.972,7.657,7.657,0,0,0,1.1-3.7A3.6,3.6,0,0,0,96.075,68a1.6,1.6,0,0,0-1.464-.8,2.687,2.687,0,0,0-1.952.854,6.9,6.9,0,0,0-1.4,2.074,11.379,11.379,0,0,0-.793,2.44,10.856,10.856,0,0,0-.244,2.074,9.861,9.861,0,0,0,1.1,4.575,28.613,28.613,0,0,0,2.562,4.087q1.464,1.952,2.989,3.9a21.221,21.221,0,0,1,2.5,4.026,23.729,23.729,0,0,0,8.174-7.137,37.572,37.572,0,0,0,4.88-9.821,1.481,1.481,0,0,1,.854-.976,1.8,1.8,0,0,1,1.22-.061,1.689,1.689,0,0,1,.976.793,1.544,1.544,0,0,1,.122,1.342,37.872,37.872,0,0,1-5.978,11.59,28.692,28.692,0,0,1-9.15,7.564,12.113,12.113,0,0,1-1.159,7.2,16.255,16.255,0,0,1-4.575,5.429,21.154,21.154,0,0,1-6.588,3.416A23.757,23.757,0,0,1,80.947,111.732Zm8.418-13.176a17.949,17.949,0,0,1-4.7.427,15.873,15.873,0,0,0-4.819.549,3.956,3.956,0,0,0-2.806,1.891,3.811,3.811,0,0,0-.366,2.806,3.522,3.522,0,0,0,1.708,2.2,4.209,4.209,0,0,0,3.538.061,13.237,13.237,0,0,0,7.442-7.93Z" transform="translate(246 224)" fill="#fff"/>
  </g>
</svg>
